Naruto_Shippuuden_271 Eng Subbed BZINGAZ in mkv format 60 mb size. 

Download**Enjoy**Seed

Naruto Shippuuden 271 mkv 60 mb Bzingaz.mkv

Format                           : Matroska
File size                        : 59.6 MiB
Duration                         : 23mn 9s
Overall bit rate                 : 360 Kbps


Video
ID                               : 1
Format                           : AVC
Format/Info                      : Advanced Video Codec
Format profile                   : High@L3.1
Format settings, CABAC           : Yes
Format settings, ReFrames        : 8 frames
Muxing mode                      : Header stripping
Codec ID                         : V_MPEG4/ISO/AVC
Duration                         : 23mn 9s
Bit rate                         : 310 Kbps
Width                            : 848 pixels
Height                           : 480 pixels
Display aspect ratio             : 16:9
Frame rate mode                  : Variable
Frame rate                       : 23.976 fps
Color space                      : YUV
Chroma subsampling               : 4:2:0
Bit depth                        : 8 bits
Scan type                        : Progressive
Bits/(Pixel*Frame)               : 0.032
Stream size                      : 50.5 MiB (85%)

Audio
ID                               : 2
Format                           : Vorbis
Format settings, Floor           : 1
Codec ID                         : A_VORBIS
Duration                         : 23mn 9s
Bit rate mode                    : Constant
Bit rate                         : 48.0 Kbps
Channel(s)                       : 2 channels
Sampling rate                    : 44.1 KHz
Compression mode                 : Lossy
Stream size                      : 7.95 MiB (13%)
Writing library                  : aoTuV Beta 5 (UTC 2006-10-24)
Language                         : un

Text
ID                               : 3
Format                           : ASS
Codec ID                         : S_TEXT/ASS
Codec ID/Info                    : Advanced Sub Station Alpha
Compression mode                 : Lossless
